<svg data-v-d3f97b9e="" xmlns="http://www.w3.org/2000/svg" viewBox="0 0 442.1504753000102 186"><!----><!----><!----><g data-v-d3f97b9e="" id="a747479e-248a-4faa-841b-b8dfcf573be3" fill="white" transform="matrix(3.222341537475586,0,0,3.222341537475586,67.19231414794922,86.40493774414062)"><path d="M4.23 7.90L4.23 7.90Q5.17 7.90 6.01 8.32L6.01 8.32L6.01 8.32Q6.85 8.75 7.42 9.53L7.42 9.53L6.33 10.88L6.33 10.88Q5.98 9.90 5.29 9.25L5.29 9.25L5.29 9.25Q4.59 8.61 3.64 8.61L3.64 8.61L3.64 8.61Q2.73 8.61 2.23 9.13L2.23 9.13L2.23 9.13Q1.72 9.65 1.72 10.46L1.72 10.46L1.72 10.46Q1.72 11.21 2.09 11.72L2.09 11.72L2.09 11.72Q2.45 12.22 2.97 12.53L2.97 12.53L2.97 12.53Q3.49 12.84 4.37 13.23L4.37 13.23L4.37 13.23Q5.21 13.61 5.69 13.89L5.69 13.89L5.69 13.89Q6.17 14.17 6.51 14.62L6.51 14.62L6.51 14.62Q6.85 15.06 6.85 15.72L6.85 15.72L6.85 15.72Q6.86 16.94 6.06 17.60L6.06 17.60L6.06 17.60Q5.26 18.26 3.99 18.26L3.99 18.26L3.99 18.26Q3.05 18.26 2.21 17.89L2.21 17.89L2.21 17.89Q1.36 17.51 0.85 16.76L0.85 16.76L1.95 15.54L1.95 15.54Q2.42 16.66 3.11 17.13L3.11 17.13L3.11 17.13Q3.79 17.60 4.44 17.60L4.44 17.60L4.44 17.60Q5.04 17.60 5.47 17.27L5.47 17.27L5.47 17.27Q5.89 16.94 5.89 16.41L5.89 16.41L5.89 16.41Q5.89 15.92 5.59 15.55L5.59 15.55L5.59 15.55Q5.29 15.18 4.84 14.92L4.84 14.92L4.84 14.92Q4.40 14.66 3.63 14.31L3.63 14.31L3.63 14.31Q2.65 13.86 2.06 13.50L2.06 13.50L2.06 13.50Q1.47 13.13 1.05 12.54L1.05 12.54L1.05 12.54Q0.63 11.94 0.63 11.09L0.63 11.09L0.63 11.09Q0.63 10.19 1.10 9.46L1.10 9.46L1.10 9.46Q1.57 8.72 2.39 8.31L2.39 8.31L2.39 8.31Q3.22 7.90 4.23 7.90L4.23 7.90ZM10.05 5.15L10.05 15.11L10.11 15.11L10.11 15.11Q10.25 14.34 10.61 13.38L10.61 13.38L10.61 13.38Q10.96 12.42 11.56 11.69L11.56 11.69L11.56 11.69Q12.17 10.96 12.98 10.96L12.98 10.96L12.98 10.96Q13.41 10.96 13.62 11.28L13.62 11.28L13.62 11.28Q13.82 11.59 13.85 11.98L13.85 11.98L13.85 11.98Q13.89 12.38 13.89 13.02L13.89 13.02L13.89 16.91L13.89 16.91Q13.89 17.08 13.99 17.23L13.99 17.23L13.99 17.23Q14.10 17.39 14.32 17.39L14.32 17.39L14.32 17.39Q14.69 17.39 15.06 16.84L15.06 16.84L15.23 17.05L15.23 17.05Q15.04 17.51 14.61 17.84L14.61 17.84L14.61 17.84Q14.18 18.16 13.75 18.16L13.75 18.16L13.75 18.16Q12.66 18.16 12.66 16.74L12.66 16.74L12.66 13.03L12.66 13.03Q12.66 12.85 12.58 12.70L12.58 12.70L12.58 12.70Q12.50 12.54 12.32 12.54L12.32 12.54L12.32 12.54Q11.61 12.54 11.09 13.66L11.09 13.66L11.09 13.66Q10.57 14.77 10.29 16.11L10.29 16.11L10.29 16.11Q10.01 17.44 10.01 17.92L10.01 17.92L8.76 18.28L8.76 5.68L10.05 5.15ZM19.87 11.09L19.87 11.09Q20.55 11.09 21.16 11.38L21.16 11.38L21.16 11.38Q21.77 11.68 22.05 12.28L22.05 12.28L21.04 12.82L21.04 12.82Q20.82 12.50 20.43 12.24L20.43 12.24L20.43 12.24Q20.03 11.98 19.59 11.98L19.59 11.98L19.59 11.98Q18.87 11.98 18.34 12.36L18.34 12.36L18.34 12.36Q17.81 12.73 17.53 13.36L17.53 13.36L17.53 13.36Q17.25 13.99 17.25 14.76L17.25 14.76L17.25 14.76Q17.25 15.86 17.63 16.55L17.63 16.55L17.63 16.55Q18.00 17.25 18.82 17.25L18.82 17.25L18.82 17.25Q19.96 17.25 20.40 16.32L20.40 16.32L20.40 16.32Q20.83 15.40 20.83 14.31L20.83 14.31L20.83 13.68L22.06 13.16L22.06 16.84L22.06 16.84Q22.06 17.02 22.16 17.19L22.16 17.19L22.16 17.19Q22.26 17.36 22.46 17.36L22.46 17.36L22.46 17.36Q22.86 17.36 23.20 16.80L23.20 16.80L23.41 17.02L23.41 17.02Q23.24 17.50 22.82 17.83L22.82 17.83L22.82 17.83Q22.40 18.16 21.98 18.16L21.98 18.16L21.98 18.16Q21.38 18.16 21.09 17.71L21.09 17.71L21.09 17.71Q20.80 17.26 20.80 16.52L20.80 16.52L20.78 16.52L20.78 16.52Q20.43 17.26 19.83 17.76L19.83 17.76L19.83 17.76Q19.24 18.26 18.58 18.26L18.58 18.26L18.58 18.26Q17.39 18.26 16.78 17.44L16.78 17.44L16.78 17.44Q16.17 16.62 16.17 15.25L16.17 15.25L16.17 15.25Q16.17 14.15 16.66 13.20L16.66 13.20L16.66 13.20Q17.15 12.24 18.00 11.66L18.00 11.66L18.00 11.66Q18.84 11.09 19.87 11.09L19.87 11.09ZM27.40 12.80L27.40 12.80Q26.77 13.45 26.31 14.51L26.31 14.51L26.31 14.51Q25.86 15.57 25.86 16.44L25.86 16.44L25.86 16.44Q25.86 17.19 26.19 17.70L26.19 17.70L26.19 17.70Q26.52 18.21 27.24 18.21L27.24 18.21L27.24 18.21Q27.83 18.21 28.37 17.91L28.37 17.91L28.37 17.91Q28.91 17.60 29.29 17.11L29.29 17.11L29.13 16.90L29.13 16.90Q28.70 17.19 28.28 17.19L28.28 17.19L28.28 17.19Q27.62 17.19 27.29 16.73L27.29 16.73L27.29 16.73Q26.95 16.27 26.95 15.61L26.95 15.61L26.95 15.61Q26.95 14.55 27.50 13.59L27.50 13.59L27.50 13.59Q28.04 12.64 28.88 11.75L28.88 11.75L28.66 11.55L28.66 11.55Q27.68 12.17 26.87 12.17L26.87 12.17L26.87 12.17Q26.39 12.17 26.00 11.74L26.00 11.74L26.00 11.74Q25.61 11.31 25.40 10.79L25.40 10.79L24.26 12.07L24.26 12.07Q24.36 12.35 24.79 12.71L24.79 12.71L23.86 14.67L24.37 14.91L25.28 12.91L25.28 12.91Q25.52 13.01 25.68 13.03L25.68 13.03L25.68 13.03Q25.83 13.06 26.10 13.06L26.10 13.06L26.10 13.06Q26.78 13.06 27.36 12.75L27.36 12.75L27.40 12.80ZM34.31 10.96L34.31 10.96Q35.07 10.96 35.57 11.37L35.57 11.37L35.57 11.37Q36.08 11.77 36.08 12.57L36.08 12.57L36.08 12.57Q36.08 13.22 35.38 14.01L35.38 14.01L35.38 14.01Q34.69 14.80 33.76 15.46L33.76 15.46L33.76 15.46Q32.83 16.11 32.17 16.38L32.17 16.38L32.17 16.38Q32.52 16.94 32.97 17.16L32.97 17.16L32.97 17.16Q33.42 17.37 34.02 17.37L34.02 17.37L34.02 17.37Q34.69 17.37 35.36 17.03L35.36 17.03L35.36 17.03Q36.02 16.69 36.46 16.14L36.46 16.14L36.62 16.44L36.62 16.44Q35.94 17.32 35.17 17.79L35.17 17.79L35.17 17.79Q34.40 18.26 33.28 18.26L33.28 18.26L33.28 18.26Q32.42 18.26 31.75 17.84L31.75 17.84L31.75 17.84Q31.08 17.42 30.70 16.71L30.70 16.71L30.70 16.71Q30.32 16.00 30.32 15.18L30.32 15.18L30.32 15.18Q30.32 14.14 30.88 13.16L30.88 13.16L30.88 13.16Q31.44 12.18 32.37 11.57L32.37 11.57L32.37 11.57Q33.29 10.96 34.31 10.96L34.31 10.96ZM33.59 11.84L33.59 11.84Q32.97 11.84 32.49 12.24L32.49 12.24L32.49 12.24Q32.00 12.63 31.73 13.24L31.73 13.24L31.73 13.24Q31.46 13.86 31.46 14.52L31.46 14.52L31.46 14.52Q31.46 15.39 31.86 16.00L31.86 16.00L31.86 16.00Q32.45 15.74 33.14 15.20L33.14 15.20L33.14 15.20Q33.82 14.66 34.30 14.03L34.30 14.03L34.30 14.03Q34.78 13.40 34.78 12.88L34.78 12.88L34.78 12.88Q34.78 11.84 33.59 11.84L33.59 11.84ZM38.28 12.25L37.83 13.44L42.57 13.44L42.99 12.25L38.28 12.25ZM48.05 10.96L48.05 10.96Q48.80 10.96 49.31 11.37L49.31 11.37L49.31 11.37Q49.81 11.77 49.81 12.57L49.81 12.57L49.81 12.57Q49.81 13.22 49.12 14.01L49.12 14.01L49.12 14.01Q48.43 14.80 47.49 15.46L47.49 15.46L47.49 15.46Q46.56 16.11 45.91 16.38L45.91 16.38L45.91 16.38Q46.26 16.94 46.70 17.16L46.70 17.16L46.70 17.16Q47.15 17.37 47.75 17.37L47.75 17.37L47.75 17.37Q48.43 17.37 49.09 17.03L49.09 17.03L49.09 17.03Q49.76 16.69 50.19 16.14L50.19 16.14L50.36 16.44L50.36 16.44Q49.67 17.32 48.90 17.79L48.90 17.79L48.90 17.79Q48.13 18.26 47.01 18.26L47.01 18.26L47.01 18.26Q46.16 18.26 45.49 17.84L45.49 17.84L45.49 17.84Q44.81 17.42 44.44 16.71L44.44 16.71L44.44 16.71Q44.06 16.00 44.06 15.18L44.06 15.18L44.06 15.18Q44.06 14.14 44.62 13.16L44.62 13.16L44.62 13.16Q45.18 12.18 46.10 11.57L46.10 11.57L46.10 11.57Q47.03 10.96 48.05 10.96L48.05 10.96ZM47.32 11.84L47.32 11.84Q46.70 11.84 46.22 12.24L46.22 12.24L46.22 12.24Q45.74 12.63 45.46 13.24L45.46 13.24L45.46 13.24Q45.19 13.86 45.19 14.52L45.19 14.52L45.19 14.52Q45.19 15.39 45.60 16.00L45.60 16.00L45.60 16.00Q46.19 15.74 46.87 15.20L46.87 15.20L46.87 15.20Q47.56 14.66 48.03 14.03L48.03 14.03L48.03 14.03Q48.51 13.40 48.51 12.88L48.51 12.88L48.51 12.88Q48.51 11.84 47.32 11.84L47.32 11.84ZM52.01 12.25L51.56 13.44L56.31 13.44L56.73 12.25L52.01 12.25ZM57.15 9.56L57.15 8.44L62.92 8.44L64.05 9.56L64.05 16.53L64.05 16.53Q64.05 16.84 64.50 17.26L64.50 17.26L64.50 17.26Q64.95 17.67 65.55 17.97L65.55 17.97L65.55 17.97Q66.16 18.27 66.58 18.27L66.58 18.27L66.58 18.27Q66.78 18.27 66.98 18.17L66.98 18.17L66.98 18.17Q67.17 18.06 67.33 17.85L67.33 17.85L68.35 18.51L68.35 18.51Q67.91 18.94 67.47 18.94L67.47 18.94L67.47 18.94Q66.65 18.94 65.56 18.39L65.56 18.39L65.56 18.39Q64.47 17.84 63.68 17.07L63.68 17.07L63.68 17.07Q62.89 16.31 62.89 15.76L62.89 15.76L62.89 14.14L62.89 14.14Q62.55 14.48 62.13 14.67L62.13 14.67L62.13 14.67Q61.71 14.87 61.35 14.87L61.35 14.87L61.35 14.87Q60.68 14.87 59.93 14.46L59.93 14.46L59.93 14.46Q59.19 14.06 58.69 13.48L58.69 13.48L58.69 13.48Q58.20 12.89 58.20 12.43L58.20 12.43L58.20 9.56L57.15 9.56ZM64.68 9.56L63.59 8.44L65.66 8.44L65.66 9.56L64.68 9.56ZM60.56 14.10L60.56 14.10Q61.15 14.10 61.77 13.70L61.77 13.70L61.77 13.70Q62.40 13.30 62.89 12.60L62.89 12.60L62.89 9.56L59.35 9.56L59.35 13.06L59.35 13.06Q59.35 13.50 59.71 13.80L59.71 13.80L59.71 13.80Q60.07 14.10 60.56 14.10L60.56 14.10ZM58.52 20.83L58.52 20.83Q59.46 21.83 60.56 22.41L60.56 22.41L60.56 22.41Q61.67 23.00 62.73 23.00L62.73 23.00L62.73 23.00Q63.35 23.00 63.92 22.71L63.92 22.71L63.92 22.71Q64.48 22.41 64.84 21.95L64.84 21.95L64.84 21.95Q65.20 21.49 65.20 21.03L65.20 21.03L65.20 21.03Q65.20 20.57 64.83 20.24L64.83 20.24L64.83 20.24Q64.46 19.91 63.98 19.91L63.98 19.91L63.98 19.91Q63.66 19.91 63.33 20.07L63.33 20.07L63.33 20.07Q63.00 20.23 62.79 20.47L62.79 20.47L62.79 20.47Q62.58 20.71 62.58 20.94L62.58 20.94L62.58 20.94Q62.58 21.14 62.73 21.27L62.73 21.27L62.73 21.27Q62.89 21.39 63.11 21.39L63.11 21.39L63.11 21.39Q63.36 21.39 63.88 20.75L63.88 20.75L64.62 21.25L64.62 21.25Q64.40 21.55 64.13 21.72L64.13 21.72L64.13 21.72Q63.85 21.90 63.60 21.90L63.60 21.90L63.60 21.90Q63.13 21.90 62.63 21.67L62.63 21.67L62.63 21.67Q62.13 21.45 61.80 21.11L61.80 21.11L61.80 21.11Q61.47 20.78 61.47 20.45L61.47 20.45L61.47 20.45Q61.47 20.10 61.74 19.78L61.74 19.78L61.74 19.78Q62.01 19.46 62.43 19.26L62.43 19.26L62.43 19.26Q62.86 19.05 63.29 19.05L63.29 19.05L63.29 19.05Q63.95 19.05 64.64 19.44L64.64 19.44L64.64 19.44Q65.32 19.82 65.78 20.42L65.78 20.42L65.78 20.42Q66.23 21.01 66.23 21.57L66.23 21.57L66.23 21.57Q66.23 22.12 65.83 22.63L65.83 22.63L65.83 22.63Q65.44 23.14 64.81 23.46L64.81 23.46L64.81 23.46Q64.18 23.77 63.55 23.77L63.55 23.77L63.55 23.77Q60.69 23.77 58.11 21.24L58.11 21.24L58.52 20.83ZM77.15 17.85L78.18 18.51L78.18 18.51Q77.78 18.94 77.29 18.94L77.29 18.94L77.29 18.94Q76.48 18.94 75.39 18.38L75.39 18.38L75.39 18.38Q74.30 17.82 73.51 17.06L73.51 17.06L73.51 17.06Q72.72 16.30 72.72 15.74L72.72 15.74L72.72 13.76L72.72 13.76Q72.31 13.87 71.97 13.87L71.97 13.87L71.97 13.87Q71.11 13.87 70.15 13.22L70.15 13.22L70.15 13.22Q69.76 13.76 69.19 14.02L69.19 14.02L69.19 14.02Q68.63 14.28 67.97 14.28L67.97 14.28L67.97 14.28Q67.73 14.28 67.61 14.27L67.61 14.27L67.61 14.27Q68.75 15.90 69.75 16.83L69.75 16.83L69.75 16.83Q70.76 17.75 71.40 17.75L71.40 17.75L71.40 17.75Q71.74 17.75 72.06 17.32L72.06 17.32L73.00 18.07L73.00 18.07Q72.80 18.30 72.49 18.43L72.49 18.43L72.49 18.43Q72.18 18.56 71.86 18.56L71.86 18.56L71.86 18.56Q71.04 18.56 69.64 17.32L69.64 17.32L69.64 17.32Q68.24 16.07 67.14 14.49L67.14 14.49L67.14 14.49Q66.04 12.91 66.04 12.05L66.04 12.05L66.04 12.05Q66.04 11.63 66.42 11.35L66.42 11.35L66.42 11.35Q66.79 11.07 67.28 11.07L67.28 11.07L67.28 11.07Q67.77 11.07 68.24 11.52L68.24 11.52L68.24 11.52Q68.71 11.96 68.98 12.68L68.98 12.68L68.98 12.68Q69.29 12.50 69.46 12.20L69.46 12.20L69.46 12.20Q69.64 11.90 69.64 11.55L69.64 11.55L69.64 11.55Q69.64 11.06 69.38 10.54L69.38 10.54L69.38 10.54Q69.13 10.01 68.68 9.56L68.68 9.56L65.28 9.56L65.28 8.44L68.35 8.44L69.38 9.56L69.38 9.56Q69.86 10.08 70.17 10.76L70.17 10.76L70.17 10.76Q70.49 11.44 70.50 12.05L70.50 12.05L70.50 12.05Q70.50 12.40 70.36 12.80L70.36 12.80L70.36 12.80Q70.76 13.05 71.32 13.05L71.32 13.05L71.32 13.05Q72.02 13.05 72.72 12.71L72.72 12.71L72.72 9.56L70.03 9.56L68.99 8.44L72.74 8.44L73.88 9.56L73.88 16.53L73.88 16.53Q73.88 16.84 74.33 17.26L74.33 17.26L74.33 17.26Q74.77 17.67 75.38 17.97L75.38 17.97L75.38 17.97Q75.99 18.27 76.41 18.27L76.41 18.27L76.41 18.27Q76.82 18.27 77.15 17.85L77.15 17.85ZM75.49 9.56L74.51 9.56L73.39 8.44L75.49 8.44L75.49 9.56ZM67.28 13.24L67.28 13.24Q68.01 13.24 68.64 12.91L68.64 12.91L68.64 12.91Q68.53 12.56 68.24 12.31L68.24 12.31L68.24 12.31Q67.96 12.05 67.66 12.05L67.66 12.05L67.66 12.05Q67.35 12.05 67.09 12.23L67.09 12.23L67.09 12.23Q66.84 12.40 66.84 12.63L66.84 12.63L66.84 12.63Q66.84 12.87 66.97 13.05L66.97 13.05L66.97 13.05Q67.10 13.24 67.28 13.24L67.28 13.24ZM76.47 22.41L76.47 22.41Q74.10 19.96 73.12 19.96L73.12 19.96L73.12 19.96Q72.41 19.96 71.34 20.19L71.34 20.19L70.62 19.17L70.62 19.17Q70.69 19.15 71.16 19.10L71.16 19.10L71.16 19.10Q71.62 19.05 72.24 19.05L72.24 19.05L72.24 19.05Q73.29 19.05 74.44 19.99L74.44 19.99L76.87 22.11L76.47 22.41ZM75.11 9.56L75.11 8.44L81.87 8.44L82.98 9.56L82.98 16.53L82.98 16.53Q82.98 16.84 83.43 17.26L83.43 17.26L83.43 17.26Q83.89 17.67 84.50 17.97L84.50 17.97L84.50 17.97Q85.11 18.27 85.53 18.27L85.53 18.27L85.53 18.27Q85.95 18.27 86.25 17.85L86.25 17.85L87.29 18.51L87.29 18.51Q86.88 18.94 86.41 18.94L86.41 18.94L86.41 18.94Q85.61 18.94 84.52 18.38L84.52 18.38L84.52 18.38Q83.43 17.82 82.63 17.06L82.63 17.06L82.63 17.06Q81.83 16.30 81.83 15.74L81.83 15.74L81.83 13.08L81.83 13.08Q81.41 12.66 80.91 12.43L80.91 12.43L80.91 12.43Q80.42 12.19 79.98 12.19L79.98 12.19L79.98 12.19Q79.18 12.19 78.50 12.55L78.50 12.55L78.50 12.55Q77.81 12.91 77.41 13.51L77.41 13.51L77.41 13.51Q77 14.11 77 14.81L77 14.81L77 14.81Q77 15.39 77.38 16.09L77.38 16.09L77.38 16.09Q77.77 16.80 78.32 17.28L78.32 17.28L78.32 17.28Q78.88 17.77 79.37 17.77L79.37 17.77L79.37 17.77Q79.51 17.77 79.67 17.69L79.67 17.69L79.67 17.69Q79.84 17.61 79.98 17.46L79.98 17.46L80.88 18.19L80.88 18.19Q80.75 18.34 80.51 18.42L80.51 18.42L80.51 18.42Q80.26 18.49 79.97 18.49L79.97 18.49L79.97 18.49Q79.06 18.49 78.16 17.77L78.16 17.77L78.16 17.77Q77.25 17.04 76.66 15.95L76.66 15.95L76.66 15.95Q76.08 14.87 76.08 13.87L76.08 13.87L76.08 13.87Q76.08 13.16 76.47 12.56L76.47 12.56L76.47 12.56Q76.86 11.96 77.52 11.61L77.52 11.61L77.52 11.61Q78.19 11.26 78.96 11.26L78.96 11.26L78.96 11.26Q79.59 11.26 80.35 11.58L80.35 11.58L80.35 11.58Q81.10 11.90 81.83 12.49L81.83 12.49L81.83 9.56L75.11 9.56ZM83.64 9.56L82.49 8.44L84.60 8.44L84.60 9.56L83.64 9.56ZM89.24 8.44L90.29 9.56L90.29 11.86L90.29 11.86Q91.17 10.88 91.91 10.88L91.91 10.88L91.91 10.88Q92.41 10.88 92.95 11.26L92.95 11.26L92.95 11.26Q93.49 11.65 93.84 12.22L93.84 12.22L93.84 12.22Q94.19 12.80 94.19 13.33L94.19 13.33L94.19 13.33Q94.19 13.80 93.87 14.27L93.87 14.27L93.87 14.27Q93.55 14.73 93.02 15.06L93.02 15.06L93.02 15.06Q92.50 15.39 91.95 15.44L91.95 15.44L91.29 14.53L91.29 14.53Q92.15 14.39 92.72 13.83L92.72 13.83L92.72 13.83Q93.30 13.26 93.30 12.56L93.30 12.56L93.30 12.56Q93.30 12.25 93.08 12.01L93.08 12.01L93.08 12.01Q92.86 11.76 92.57 11.76L92.57 11.76L92.57 11.76Q92.05 11.76 91.46 12.20L91.46 12.20L91.46 12.20Q90.87 12.64 90.29 13.43L90.29 13.43L90.29 16.53L90.29 16.53Q90.29 16.84 90.74 17.26L90.74 17.26L90.74 17.26Q91.20 17.67 91.81 17.97L91.81 17.97L91.81 17.97Q92.43 18.27 92.85 18.27L92.85 18.27L92.85 18.27Q93.17 18.27 93.56 17.85L93.56 17.85L94.60 18.51L94.60 18.51Q94.19 18.94 93.72 18.94L93.72 18.94L93.72 18.94Q92.90 18.94 91.81 18.39L91.81 18.39L91.81 18.39Q90.72 17.84 89.92 17.07L89.92 17.07L89.92 17.07Q89.12 16.31 89.12 15.76L89.12 15.76L89.12 14.31L89.12 14.31Q88.37 15.06 87.53 15.06L87.53 15.06L87.53 15.06Q86.88 15.06 86.27 14.70L86.27 14.70L86.27 14.70Q85.65 14.34 85.26 13.77L85.26 13.77L85.26 13.77Q84.87 13.20 84.87 12.64L84.87 12.64L84.87 12.64Q84.87 12.19 85.19 11.77L85.19 11.77L85.19 11.77Q85.51 11.34 86.02 11.07L86.02 11.07L86.02 11.07Q86.52 10.81 87.04 10.81L87.04 10.81L87.79 10.81L87.79 10.81Q88.10 10.81 88.77 11.62L88.77 11.62L88.66 11.87L88.66 11.87Q88.27 11.65 88.02 11.65L88.02 11.65L88.02 11.65Q87.46 11.65 86.93 11.89L86.93 11.89L86.93 11.89Q86.41 12.12 86.09 12.52L86.09 12.52L86.09 12.52Q85.76 12.91 85.76 13.34L85.76 13.34L85.76 13.34Q85.76 13.68 86.06 13.93L86.06 13.93L86.06 13.93Q86.37 14.18 86.79 14.18L86.79 14.18L86.79 14.18Q87.40 14.18 88.02 13.84L88.02 13.84L88.02 13.84Q88.63 13.50 89.12 12.87L89.12 12.87L89.12 9.56L84.22 9.56L84.22 8.44L89.24 8.44ZM94.88 8.44L94.88 9.56L90.94 9.56L89.88 8.44L94.88 8.44Z"></path></g><!----><g data-v-d3f97b9e="" id="14b79540-8a6c-4e34-bebf-fa35c7bd7acd" transform="matrix(4.884668827056885,0,0,4.884668827056885,-22.492462158203125,-198.4478759765625)" stroke="none" fill="white"><path d="M91.428 42.606v-.453h-3.322v4.3l-3.723-.382-.615 6.049v-6.911h-4.562v.792h-2.703v3.396H72.48v.501l-.554-7.887-5.808.412.267 3.804h-3.12v-3.848H58.14v.113h-3.041v.679h-1.521v-.792H49.13v8.941h-2.669v-5.771h-4.107v-2.151H38.665v15.785H49.75V42.999h1.492v16.183H67.295l.001.021 5.185-.367v.347h11.288v-.332l3.524.362.813-7.999v7.969H95.259V42.606h-3.831zM41.731 58.563H39.28V44.017h2.451v14.546zm7.396 0h-2.688v-6.624h2.688v6.624zm5.857 0h-1.408V43.791h1.408v14.772zm1.492 0h-.759V43.112h2.31v1.685h-1.551v13.766zm1.663 0h-1.044V45.416h1.044v13.147zm8.562 0h-3.438V46.847h3.163l.274 3.91v7.806zm1.167-.021l-1.09-15.545 4.571-.324 1.092 15.546-4.573.323zm8.634.021h-3.404v-8.548h3.404v8.548zm6.646 0h-3.32V46.001h-.004v-.172h3.324v12.734zm3.59-.03l-2.97-.305 1.168-11.479 2.97.305-1.168 11.479zm4.071.03h-2.084V42.772h2.084v15.791zM32.455 43.894l-3.847-.208V42.38H24.27v-1.592h-3.098v8.609h-4.419l-.518-7.374-5.656.401.267 3.804H7.839V42.38H4.741v16.803H11.556v-2.816l.199 2.837 4.858-.344.799-.057-.017-.239-.163-2.328v-6.22h3.939v9.167h7.436v-.181l3.732.202.115-2.139v2.117h4.213V42.04h-4.213v1.854zM7.22 58.563H5.36V42.999h1.86v15.564zm5.11-.021l-1.09-15.545 4.42-.313 1.091 15.546-4.421.312zm15.658.021h-3.703V42.999h3.703v15.564zm5.086-15.904h2.975v15.904h-2.975V42.659z"></path></g><!----><g data-v-d3f97b9e="" id="7bc4d5e9-48ee-4031-bb42-91efd5c146be" fill="white" transform="matrix(0.8528502583503723,0,0,0.8528502583503723,108.22808837890625,200.56629943847656)"><path d="M6.43 9.91C6.29 9.65 6.09 9.39 5.85 9.21C5.61 9.03 5.36 8.88 5.07 8.75C4.77 8.62 4.45 8.51 4.14 8.41C3.84 8.32 3.53 8.20 3.23 8.11C2.94 7.99 2.67 7.87 2.44 7.71C2.20 7.56 2.02 7.38 1.88 7.15C1.74 6.93 1.65 6.65 1.65 6.31C1.65 6.06 1.71 5.82 1.81 5.59C1.90 5.35 2.04 5.15 2.23 4.97C2.41 4.79 2.63 4.65 2.91 4.55C3.19 4.45 3.50 4.40 3.86 4.40C4.54 4.40 5.15 4.51 5.71 4.75C5.75 5.54 5.78 5.99 5.78 6.06C5.80 6.29 5.88 6.41 6.08 6.41L6.41 6.41L6.41 4.38C5.53 4.00 4.69 3.81 3.86 3.81C3.40 3.81 3.00 3.88 2.63 4.02C2.27 4.16 1.97 4.34 1.74 4.58C1.50 4.82 1.30 5.08 1.18 5.39C1.05 5.70 0.99 6.02 0.99 6.36C0.99 6.78 1.06 7.14 1.20 7.42C1.34 7.70 1.54 7.92 1.78 8.12C2.02 8.32 2.27 8.46 2.56 8.58C2.86 8.71 3.18 8.82 3.49 8.92C3.79 9.02 4.09 9.11 4.40 9.21C4.69 9.31 4.96 9.45 5.19 9.60C5.43 9.76 5.61 9.94 5.75 10.16C5.89 10.39 5.96 10.68 5.96 11.03C5.96 11.35 5.91 11.66 5.80 11.94C5.68 12.22 5.53 12.46 5.32 12.67C5.11 12.88 4.84 13.05 4.54 13.16C4.23 13.29 3.88 13.33 3.49 13.33C2.70 13.33 2.04 13.20 1.51 12.95C1.50 12.75 1.50 12.54 1.48 12.32C1.47 12.10 1.47 11.91 1.46 11.76C1.44 11.61 1.44 11.52 1.44 11.51C1.43 11.28 1.33 11.17 1.13 11.17L0.80 11.17L0.80 13.02L0.80 13.20L0.80 13.38C1.65 13.75 2.53 13.93 3.46 13.93C3.96 13.93 4.41 13.85 4.80 13.69C5.19 13.54 5.53 13.31 5.80 13.05C6.06 12.78 6.29 12.46 6.43 12.10C6.57 11.73 6.64 11.34 6.64 10.92C6.64 10.51 6.57 10.18 6.43 9.91ZM20.61 7.63C20.13 7.04 19.46 6.73 18.61 6.73C18.09 6.73 17.64 6.86 17.22 7.11C16.81 7.36 16.45 7.69 16.14 8.11L16.07 7.03C16.07 6.96 16.06 6.92 16.02 6.89C15.97 6.86 15.92 6.86 15.86 6.86L15.50 6.86L14.49 6.86L14.49 7.13C14.49 7.28 14.59 7.36 14.77 7.38L14.84 7.38C14.87 7.38 14.91 7.39 14.95 7.39L15.16 7.39C15.26 7.39 15.37 7.41 15.50 7.41L15.50 15.72C15.34 15.72 15.20 15.75 15.09 15.75L14.85 15.75L14.77 15.75C14.59 15.76 14.49 15.85 14.49 16.00L14.49 16.28L15.50 16.28L16.17 16.28L17.18 16.28L17.18 16.00C17.18 15.85 17.08 15.76 16.90 15.75L16.83 15.75L16.72 15.75C16.67 15.75 16.60 15.74 16.51 15.74C16.41 15.74 16.30 15.72 16.17 15.72L16.17 12.88C16.42 13.22 16.72 13.48 17.07 13.65C17.42 13.82 17.82 13.90 18.30 13.90C18.79 13.90 19.21 13.80 19.59 13.62C19.96 13.44 20.29 13.19 20.54 12.87C20.79 12.54 21 12.15 21.13 11.72C21.27 11.28 21.32 10.79 21.32 10.29C21.32 9.10 21.08 8.22 20.61 7.63ZM20.48 11.55C20.38 11.93 20.22 12.25 20.01 12.53C19.80 12.81 19.54 13.01 19.24 13.16C18.93 13.31 18.56 13.38 18.16 13.38C17.74 13.38 17.37 13.30 17.05 13.13C16.73 12.96 16.44 12.70 16.17 12.29L16.17 8.64C16.46 8.20 16.79 7.87 17.16 7.63C17.54 7.39 17.96 7.28 18.42 7.28C19.14 7.28 19.68 7.52 20.06 8.01C20.44 8.50 20.64 9.25 20.64 10.29C20.64 10.75 20.59 11.17 20.48 11.55ZM32.55 6.73C32.06 6.73 31.61 6.83 31.22 7.00C30.83 7.17 30.51 7.41 30.24 7.71C29.97 8.02 29.76 8.39 29.62 8.81C29.48 9.23 29.40 9.69 29.40 10.19C29.40 10.78 29.48 11.31 29.64 11.77C29.79 12.24 30.00 12.61 30.28 12.94C30.56 13.26 30.90 13.50 31.29 13.66C31.68 13.83 32.12 13.90 32.59 13.90C32.86 13.90 33.12 13.89 33.38 13.83C33.63 13.78 33.88 13.71 34.10 13.62C34.33 13.54 34.54 13.44 34.72 13.31C34.90 13.19 35.06 13.06 35.17 12.92L34.99 12.70C34.96 12.66 34.90 12.63 34.85 12.63C34.80 12.63 34.72 12.66 34.62 12.74C34.52 12.82 34.38 12.91 34.20 13.01C34.03 13.10 33.81 13.17 33.56 13.26C33.31 13.34 33.00 13.38 32.65 13.38C32.26 13.38 31.91 13.31 31.58 13.17C31.26 13.03 31.00 12.84 30.77 12.57C30.55 12.31 30.38 11.97 30.25 11.58C30.13 11.19 30.07 10.71 30.07 10.19L30.07 10.07L35.10 10.07C35.17 10.07 35.21 10.05 35.24 10.01C35.27 9.97 35.29 9.90 35.29 9.80C35.29 9.31 35.22 8.88 35.08 8.50C34.94 8.12 34.76 7.78 34.51 7.53C34.27 7.28 33.98 7.08 33.64 6.94C33.31 6.80 32.94 6.73 32.55 6.73ZM32.56 7.24C32.89 7.24 33.17 7.29 33.43 7.41C33.70 7.52 33.92 7.67 34.10 7.88C34.29 8.09 34.44 8.33 34.54 8.62C34.64 8.92 34.69 9.25 34.69 9.63L30.10 9.63C30.14 9.27 30.23 8.93 30.35 8.64C30.48 8.34 30.65 8.09 30.86 7.88C31.07 7.67 31.32 7.52 31.60 7.41C31.88 7.29 32.20 7.24 32.56 7.24ZM50.76 13.29L50.69 13.29L50.58 13.29C50.54 13.29 50.47 13.27 50.37 13.27C50.27 13.27 50.16 13.26 50.04 13.26L50.04 9.37C50.04 8.96 49.98 8.60 49.88 8.27C49.78 7.95 49.64 7.67 49.45 7.45C49.25 7.22 49.01 7.06 48.72 6.93C48.43 6.80 48.09 6.75 47.71 6.75C47.19 6.75 46.72 6.87 46.30 7.11C45.88 7.36 45.51 7.67 45.19 8.08L45.14 7.03C45.12 6.92 45.05 6.86 44.93 6.86L44.56 6.86L43.55 6.86L43.55 7.13C43.55 7.28 43.64 7.36 43.82 7.38L43.90 7.38C43.93 7.38 43.96 7.39 44.00 7.39L44.21 7.39C44.31 7.39 44.44 7.41 44.56 7.41L44.56 13.26C44.39 13.26 44.25 13.29 44.14 13.29L43.92 13.29L43.82 13.29C43.64 13.30 43.55 13.38 43.55 13.54L43.55 13.82L44.56 13.82L45.22 13.82L46.23 13.82L46.23 13.54C46.23 13.38 46.14 13.30 45.96 13.29L45.88 13.29L45.78 13.29C45.74 13.29 45.67 13.27 45.57 13.27C45.47 13.27 45.35 13.26 45.22 13.26L45.22 8.60C45.53 8.19 45.88 7.87 46.27 7.63C46.66 7.39 47.08 7.28 47.54 7.28C48.16 7.28 48.62 7.46 48.92 7.83C49.21 8.20 49.36 8.71 49.36 9.37L49.36 13.82L50.04 13.82L51.04 13.82L51.04 13.54C51.04 13.38 50.95 13.30 50.76 13.29ZM65.93 13.54C65.93 13.38 65.84 13.30 65.66 13.29L65.59 13.29L65.49 13.29C65.45 13.29 65.38 13.27 65.30 13.27L64.99 13.27L64.99 3.63L64.33 3.63L63.32 3.63L63.32 3.91C63.32 4.06 63.42 4.14 63.60 4.16L63.67 4.16C63.70 4.16 63.73 4.17 63.77 4.17L63.99 4.17C64.09 4.17 64.20 4.19 64.33 4.19L64.33 7.76C64.08 7.42 63.78 7.17 63.43 7.00C63.08 6.82 62.68 6.73 62.20 6.73C61.71 6.73 61.28 6.83 60.90 7.01C60.52 7.20 60.21 7.46 59.95 7.78C59.68 8.11 59.50 8.50 59.36 8.93C59.22 9.37 59.16 9.84 59.16 10.35C59.16 11.54 59.40 12.43 59.88 13.02C60.35 13.61 61.03 13.90 61.88 13.90C62.40 13.90 62.86 13.79 63.28 13.54C63.70 13.29 64.05 12.95 64.36 12.53L64.43 13.64C64.44 13.76 64.51 13.82 64.62 13.82L64.99 13.82L65.93 13.82L65.93 13.61ZM64.33 12.01C64.04 12.43 63.70 12.77 63.32 13.01C62.94 13.24 62.54 13.37 62.08 13.37C61.36 13.37 60.80 13.13 60.42 12.64C60.05 12.15 59.85 11.38 59.85 10.35C59.85 9.88 59.89 9.48 60.00 9.10C60.12 8.72 60.27 8.39 60.48 8.12C60.69 7.85 60.94 7.63 61.25 7.48C61.56 7.32 61.92 7.25 62.33 7.25C62.73 7.25 63.11 7.34 63.43 7.50C63.76 7.67 64.06 7.95 64.33 8.34ZM86.94 13.29L86.87 13.29L86.76 13.29C86.72 13.29 86.65 13.27 86.55 13.27C86.45 13.27 86.34 13.26 86.21 13.26L86.21 3.63L85.54 3.63L84.53 3.63L84.53 3.91C84.53 4.06 84.63 4.14 84.81 4.16L84.88 4.16C84.91 4.16 84.95 4.17 84.99 4.17L85.20 4.17C85.30 4.17 85.41 4.19 85.54 4.19L85.54 13.26C85.39 13.26 85.25 13.29 85.13 13.29L84.90 13.29L84.81 13.29C84.63 13.30 84.53 13.38 84.53 13.54L84.53 13.82L85.54 13.82L86.21 13.82L87.22 13.82L87.22 13.54C87.22 13.38 87.12 13.30 86.94 13.29ZM98.43 6.73C97.94 6.73 97.50 6.83 97.10 7.00C96.71 7.17 96.39 7.41 96.12 7.71C95.86 8.02 95.65 8.39 95.51 8.81C95.37 9.23 95.28 9.69 95.28 10.19C95.28 10.78 95.37 11.31 95.52 11.77C95.68 12.24 95.89 12.61 96.17 12.94C96.45 13.26 96.78 13.50 97.17 13.66C97.57 13.83 98.00 13.90 98.48 13.90C98.74 13.90 99.01 13.89 99.26 13.83C99.51 13.78 99.76 13.71 99.99 13.62C100.21 13.54 100.42 13.44 100.60 13.31C100.79 13.19 100.94 13.06 101.05 12.92L100.87 12.70C100.84 12.66 100.79 12.63 100.73 12.63C100.69 12.63 100.60 12.66 100.51 12.74C100.41 12.82 100.27 12.91 100.09 13.01C99.92 13.10 99.69 13.17 99.44 13.26C99.19 13.34 98.88 13.38 98.53 13.38C98.14 13.38 97.79 13.31 97.47 13.17C97.15 13.03 96.88 12.84 96.66 12.57C96.43 12.31 96.26 11.97 96.14 11.58C96.01 11.19 95.96 10.71 95.96 10.19L95.96 10.07L100.98 10.07C101.05 10.07 101.09 10.05 101.12 10.01C101.15 9.97 101.18 9.90 101.18 9.80C101.18 9.31 101.11 8.88 100.97 8.50C100.83 8.12 100.65 7.78 100.39 7.53C100.16 7.28 99.86 7.08 99.53 6.94C99.19 6.80 98.83 6.73 98.43 6.73ZM98.45 7.24C98.77 7.24 99.05 7.29 99.32 7.41C99.58 7.52 99.81 7.67 99.99 7.88C100.17 8.09 100.32 8.33 100.42 8.62C100.52 8.92 100.58 9.25 100.58 9.63L95.98 9.63C96.03 9.27 96.11 8.93 96.24 8.64C96.36 8.34 96.53 8.09 96.74 7.88C96.95 7.67 97.20 7.52 97.48 7.41C97.76 7.29 98.08 7.24 98.45 7.24ZM113.96 11.06C113.85 10.86 113.71 10.71 113.53 10.57C113.34 10.43 113.13 10.32 112.91 10.23C112.69 10.15 112.43 10.05 112.20 9.98C111.96 9.91 111.72 9.83 111.48 9.76C111.26 9.69 111.05 9.59 110.87 9.49C110.68 9.39 110.54 9.27 110.43 9.13C110.32 8.99 110.26 8.81 110.26 8.58C110.26 8.40 110.29 8.23 110.38 8.08C110.46 7.92 110.57 7.77 110.73 7.64C110.87 7.52 111.05 7.43 111.26 7.36C111.47 7.29 111.69 7.25 111.94 7.25C112.31 7.25 112.67 7.31 113.05 7.43C113.06 7.60 113.08 7.77 113.09 7.92C113.11 8.08 113.11 8.19 113.12 8.27C113.13 8.36 113.13 8.43 113.13 8.44C113.15 8.67 113.25 8.78 113.44 8.78L113.78 8.78L113.78 7.11C113.05 6.86 112.43 6.75 111.93 6.75C111.58 6.75 111.26 6.80 110.98 6.90C110.70 7.00 110.45 7.14 110.25 7.31C110.05 7.48 109.90 7.69 109.79 7.91C109.68 8.13 109.63 8.37 109.63 8.62C109.63 8.92 109.69 9.16 109.80 9.35C109.91 9.55 110.05 9.70 110.24 9.84C110.42 9.98 110.61 10.09 110.85 10.18C111.08 10.26 111.31 10.35 111.57 10.42C111.80 10.49 112.04 10.57 112.28 10.64C112.50 10.71 112.71 10.81 112.90 10.92C113.08 11.03 113.23 11.16 113.34 11.31C113.46 11.47 113.51 11.65 113.51 11.89C113.51 12.10 113.47 12.29 113.40 12.49C113.32 12.68 113.20 12.84 113.05 12.98C112.90 13.12 112.71 13.23 112.49 13.31C112.27 13.40 112.01 13.44 111.72 13.44C111.19 13.44 110.74 13.37 110.36 13.22C110.35 13.03 110.33 12.87 110.32 12.71C110.31 12.56 110.31 12.43 110.29 12.35C110.28 12.26 110.28 12.19 110.28 12.18C110.26 11.96 110.17 11.84 109.97 11.84L109.63 11.84L109.63 13.54C110.31 13.79 110.99 13.93 111.69 13.93C112.08 13.93 112.42 13.87 112.73 13.76C113.04 13.65 113.29 13.50 113.50 13.30C113.71 13.10 113.86 12.89 113.97 12.63C114.09 12.36 114.14 12.08 114.14 11.77C114.14 11.49 114.07 11.26 113.96 11.06ZM126.94 11.06C126.83 10.86 126.69 10.71 126.50 10.57C126.32 10.43 126.11 10.32 125.89 10.23C125.66 10.15 125.41 10.05 125.17 9.98C124.94 9.91 124.70 9.83 124.46 9.76C124.24 9.69 124.03 9.59 123.84 9.49C123.66 9.39 123.52 9.27 123.41 9.13C123.30 8.99 123.24 8.81 123.24 8.58C123.24 8.40 123.27 8.23 123.35 8.08C123.44 7.92 123.55 7.77 123.70 7.64C123.84 7.52 124.03 7.43 124.24 7.36C124.45 7.29 124.67 7.25 124.92 7.25C125.29 7.25 125.65 7.31 126.03 7.43C126.04 7.60 126.06 7.77 126.07 7.92C126.08 8.08 126.08 8.19 126.10 8.27C126.11 8.36 126.11 8.43 126.11 8.44C126.13 8.67 126.22 8.78 126.42 8.78L126.76 8.78L126.76 7.11C126.03 6.86 125.41 6.75 124.91 6.75C124.56 6.75 124.24 6.80 123.96 6.90C123.68 7.00 123.42 7.14 123.23 7.31C123.03 7.48 122.88 7.69 122.77 7.91C122.65 8.13 122.61 8.37 122.61 8.62C122.61 8.92 122.67 9.16 122.78 9.35C122.89 9.55 123.03 9.70 123.21 9.84C123.40 9.98 123.59 10.09 123.83 10.18C124.05 10.26 124.29 10.35 124.54 10.42C124.78 10.49 125.02 10.57 125.26 10.64C125.48 10.71 125.69 10.81 125.87 10.92C126.06 11.03 126.21 11.16 126.32 11.31C126.43 11.47 126.49 11.65 126.49 11.89C126.49 12.10 126.45 12.29 126.38 12.49C126.29 12.68 126.18 12.84 126.03 12.98C125.87 13.12 125.69 13.23 125.47 13.31C125.24 13.40 124.99 13.44 124.70 13.44C124.17 13.44 123.72 13.37 123.34 13.22C123.33 13.03 123.31 12.87 123.30 12.71C123.28 12.56 123.28 12.43 123.27 12.35C123.26 12.26 123.26 12.19 123.26 12.18C123.24 11.96 123.14 11.84 122.95 11.84L122.61 11.84L122.61 13.54C123.28 13.79 123.97 13.93 124.67 13.93C125.06 13.93 125.40 13.87 125.71 13.76C126.01 13.65 126.27 13.50 126.48 13.30C126.69 13.10 126.84 12.89 126.95 12.63C127.06 12.36 127.12 12.08 127.12 11.77C127.12 11.49 127.05 11.26 126.94 11.06ZM135.67 13.23C135.67 13.41 135.72 13.57 135.83 13.68C135.94 13.79 136.09 13.85 136.26 13.85L136.37 13.85C136.40 13.85 136.43 13.83 136.46 13.82C136.44 13.99 136.40 14.14 136.35 14.29C136.29 14.45 136.22 14.57 136.15 14.70C136.08 14.83 136.01 14.94 135.94 15.02C135.87 15.11 135.80 15.19 135.76 15.23C135.74 15.25 135.73 15.27 135.72 15.30C135.70 15.33 135.69 15.33 135.69 15.36C135.69 15.40 135.70 15.44 135.74 15.48L135.86 15.58C136.01 15.43 136.16 15.29 136.29 15.11C136.42 14.92 136.53 14.74 136.63 14.55C136.72 14.35 136.78 14.15 136.84 13.96C136.89 13.76 136.91 13.58 136.91 13.38C136.91 13.16 136.85 12.98 136.74 12.84C136.63 12.70 136.47 12.63 136.28 12.63C136.09 12.63 135.95 12.70 135.84 12.81C135.73 12.92 135.67 13.06 135.67 13.23ZM153.55 13.29L153.45 13.29L153.27 13.29C153.19 13.29 153.10 13.27 153.02 13.27L150.05 9.53C149.97 9.42 149.86 9.32 149.74 9.25C150.18 9.21 150.57 9.11 150.92 8.96C151.27 8.81 151.55 8.61 151.80 8.37C152.04 8.13 152.24 7.85 152.36 7.55C152.49 7.24 152.56 6.89 152.56 6.51C152.56 5.66 152.28 5.03 151.72 4.58C151.16 4.14 150.30 3.92 149.16 3.92L146.75 3.92L145.57 3.92L145.57 4.19C145.57 4.34 145.66 4.42 145.84 4.44L145.98 4.44C146.05 4.44 146.15 4.45 146.29 4.45C146.43 4.45 146.58 4.47 146.75 4.47L146.75 13.26C146.58 13.26 146.43 13.27 146.29 13.27C146.15 13.27 146.05 13.29 145.98 13.29L145.84 13.29C145.66 13.30 145.56 13.38 145.56 13.54L145.56 13.82L146.75 13.82L147.46 13.82L148.64 13.82L148.64 13.54C148.64 13.38 148.54 13.30 148.36 13.29L148.22 13.29C148.15 13.29 148.05 13.27 147.91 13.27C147.77 13.27 147.63 13.26 147.46 13.26L147.46 9.34L148.64 9.34C148.83 9.34 148.97 9.35 149.06 9.39C149.14 9.44 149.23 9.52 149.31 9.62L152.49 13.64C152.54 13.71 152.59 13.75 152.64 13.78C152.70 13.80 152.77 13.82 152.84 13.82L152.91 13.82L153.45 13.82L153.82 13.82L153.82 13.54C153.82 13.38 153.73 13.30 153.55 13.29ZM149.06 8.81L147.46 8.81L147.46 4.48L149.16 4.48C150.04 4.48 150.71 4.66 151.17 5.00C151.63 5.33 151.86 5.87 151.86 6.57C151.86 6.92 151.80 7.21 151.68 7.49C151.55 7.77 151.35 7.99 151.12 8.19C150.88 8.39 150.58 8.55 150.23 8.65C149.88 8.75 149.49 8.81 149.06 8.81ZM165.00 6.73C164.51 6.73 164.07 6.83 163.67 7.00C163.28 7.17 162.96 7.41 162.69 7.71C162.43 8.02 162.22 8.39 162.08 8.81C161.94 9.23 161.85 9.69 161.85 10.19C161.85 10.78 161.94 11.31 162.09 11.77C162.25 12.24 162.46 12.61 162.74 12.94C163.02 13.26 163.35 13.50 163.74 13.66C164.14 13.83 164.57 13.90 165.05 13.90C165.31 13.90 165.58 13.89 165.83 13.83C166.08 13.78 166.33 13.71 166.56 13.62C166.78 13.54 166.99 13.44 167.17 13.31C167.36 13.19 167.51 13.06 167.62 12.92L167.44 12.70C167.41 12.66 167.36 12.63 167.30 12.63C167.26 12.63 167.17 12.66 167.08 12.74C166.98 12.82 166.84 12.91 166.66 13.01C166.49 13.10 166.26 13.17 166.01 13.26C165.76 13.34 165.45 13.38 165.10 13.38C164.71 13.38 164.36 13.31 164.04 13.17C163.72 13.03 163.45 12.84 163.23 12.57C163.00 12.31 162.83 11.97 162.71 11.58C162.58 11.19 162.53 10.71 162.53 10.19L162.53 10.07L167.55 10.07C167.62 10.07 167.66 10.05 167.69 10.01C167.72 9.97 167.75 9.90 167.75 9.80C167.75 9.31 167.68 8.88 167.54 8.50C167.40 8.12 167.22 7.78 166.96 7.53C166.73 7.28 166.43 7.08 166.10 6.94C165.76 6.80 165.40 6.73 165.00 6.73ZM165.02 7.24C165.34 7.24 165.62 7.29 165.89 7.41C166.15 7.52 166.38 7.67 166.56 7.88C166.74 8.09 166.89 8.33 166.99 8.62C167.09 8.92 167.15 9.25 167.15 9.63L162.55 9.63C162.60 9.27 162.68 8.93 162.81 8.64C162.93 8.34 163.10 8.09 163.31 7.88C163.52 7.67 163.77 7.52 164.05 7.41C164.33 7.29 164.65 7.24 165.02 7.24ZM181.58 13.29L181.48 13.29L181.26 13.29C181.16 13.29 181.05 13.27 180.94 13.27L180.94 9.28C180.94 8.89 180.89 8.55 180.80 8.23C180.70 7.91 180.56 7.64 180.38 7.42C180.19 7.20 179.96 7.03 179.68 6.92C179.40 6.79 179.07 6.73 178.70 6.73C178.19 6.73 177.74 6.83 177.34 7.01C176.93 7.20 176.55 7.48 176.19 7.84L176.30 8.05C176.34 8.13 176.41 8.18 176.51 8.18C176.58 8.18 176.68 8.12 176.78 8.02C176.88 7.92 177.02 7.84 177.18 7.73C177.35 7.62 177.53 7.52 177.77 7.42C178.01 7.32 178.29 7.28 178.63 7.28C179.17 7.28 179.59 7.45 179.87 7.80C180.15 8.15 180.28 8.64 180.28 9.28L180.28 10.01C179.49 10.02 178.82 10.09 178.26 10.21C177.70 10.32 177.24 10.47 176.88 10.65C176.51 10.84 176.26 11.06 176.09 11.31C175.92 11.56 175.84 11.83 175.84 12.12C175.84 12.45 175.90 12.73 175.99 12.95C176.11 13.17 176.25 13.36 176.41 13.50C176.58 13.64 176.79 13.75 177.02 13.82C177.24 13.89 177.46 13.93 177.70 13.93C177.98 13.93 178.25 13.90 178.49 13.85C178.72 13.79 178.93 13.71 179.14 13.61C179.35 13.51 179.55 13.38 179.75 13.23C179.93 13.08 180.11 12.91 180.31 12.73L180.40 13.62C180.43 13.75 180.53 13.82 180.67 13.82L180.68 13.82L180.94 13.82L181.86 13.82L181.86 13.54C181.86 13.38 181.76 13.30 181.58 13.29ZM180.28 12.26C180.11 12.43 179.96 12.60 179.79 12.74C179.62 12.88 179.44 13.01 179.24 13.12C179.05 13.23 178.84 13.30 178.61 13.36C178.39 13.41 178.14 13.44 177.87 13.44C177.69 13.44 177.51 13.43 177.34 13.37C177.17 13.31 177.03 13.24 176.90 13.13C176.78 13.02 176.67 12.88 176.60 12.71C176.51 12.54 176.48 12.35 176.48 12.11C176.48 11.86 176.55 11.63 176.71 11.44C176.86 11.24 177.09 11.09 177.39 10.95C177.70 10.81 178.09 10.70 178.57 10.61C179.05 10.53 179.62 10.47 180.28 10.46ZM196.76 13.54C196.76 13.38 196.67 13.30 196.49 13.29L196.42 13.29L196.32 13.29C196.28 13.29 196.21 13.27 196.13 13.27L195.82 13.27L195.82 3.63L195.16 3.63L194.15 3.63L194.15 3.91C194.15 4.06 194.25 4.14 194.43 4.16L194.50 4.16C194.53 4.16 194.56 4.17 194.60 4.17L194.82 4.17C194.92 4.17 195.03 4.19 195.16 4.19L195.16 7.76C194.91 7.42 194.61 7.17 194.26 7.00C193.91 6.82 193.51 6.73 193.03 6.73C192.54 6.73 192.11 6.83 191.73 7.01C191.35 7.20 191.04 7.46 190.78 7.78C190.51 8.11 190.33 8.50 190.19 8.93C190.05 9.37 189.99 9.84 189.99 10.35C189.99 11.54 190.23 12.43 190.71 13.02C191.18 13.61 191.86 13.90 192.71 13.90C193.23 13.90 193.69 13.79 194.11 13.54C194.53 13.29 194.88 12.95 195.19 12.53L195.26 13.64C195.27 13.76 195.34 13.82 195.45 13.82L195.82 13.82L196.76 13.82L196.76 13.61ZM195.16 12.01C194.87 12.43 194.53 12.77 194.15 13.01C193.77 13.24 193.37 13.37 192.91 13.37C192.19 13.37 191.63 13.13 191.25 12.64C190.88 12.15 190.68 11.38 190.68 10.35C190.68 9.88 190.72 9.48 190.83 9.10C190.95 8.72 191.10 8.39 191.31 8.12C191.52 7.85 191.77 7.63 192.08 7.48C192.39 7.32 192.75 7.25 193.16 7.25C193.56 7.25 193.94 7.34 194.26 7.50C194.59 7.67 194.89 7.95 195.16 8.34ZM226.18 13.29L226.10 13.29L226.00 13.29C225.96 13.29 225.89 13.27 225.79 13.27C225.69 13.27 225.57 13.26 225.44 13.26L225.44 9.37C225.44 8.95 225.39 8.57 225.29 8.25C225.19 7.92 225.05 7.64 224.85 7.42C224.66 7.20 224.42 7.03 224.14 6.92C223.86 6.80 223.57 6.75 223.22 6.75C222.98 6.75 222.73 6.78 222.50 6.85C222.28 6.92 222.07 7.01 221.87 7.15C221.68 7.29 221.49 7.46 221.34 7.67C221.19 7.88 221.07 8.13 220.99 8.43C220.88 7.90 220.68 7.48 220.37 7.18C220.07 6.89 219.66 6.75 219.16 6.75C218.93 6.75 218.72 6.76 218.53 6.83C218.33 6.89 218.15 6.99 217.97 7.10C217.80 7.21 217.63 7.36 217.48 7.52C217.32 7.67 217.18 7.84 217.04 8.04L216.99 7.03C216.97 6.92 216.90 6.86 216.78 6.86L216.41 6.86L215.40 6.86L215.40 7.13C215.40 7.28 215.49 7.36 215.67 7.38L215.75 7.38C215.78 7.38 215.81 7.39 215.85 7.39L216.06 7.39C216.16 7.39 216.29 7.41 216.41 7.41L216.41 13.26C216.24 13.26 216.10 13.29 215.99 13.29L215.77 13.29L215.67 13.29C215.49 13.30 215.40 13.38 215.40 13.54L215.40 13.82L216.41 13.82L217.07 13.82L218.08 13.82L218.08 13.54C218.08 13.38 217.99 13.30 217.81 13.29L217.73 13.29L217.63 13.29C217.59 13.29 217.52 13.27 217.42 13.27C217.32 13.27 217.20 13.26 217.07 13.26L217.07 8.55C217.32 8.15 217.62 7.84 217.94 7.62C218.26 7.39 218.61 7.28 218.99 7.28C219.51 7.28 219.90 7.45 220.16 7.81C220.43 8.18 220.57 8.69 220.57 9.37L220.57 13.82L221.24 13.82L221.24 13.82L222.25 13.82L222.25 13.54C222.25 13.38 222.15 13.30 221.97 13.29L221.90 13.29L221.79 13.29C221.75 13.29 221.68 13.27 221.58 13.27C221.48 13.27 221.37 13.26 221.24 13.26L221.24 9.37C221.24 9.02 221.28 8.72 221.38 8.46C221.48 8.19 221.62 7.97 221.79 7.80C221.96 7.63 222.15 7.49 222.38 7.41C222.60 7.32 222.84 7.28 223.08 7.28C223.62 7.28 224.04 7.46 224.34 7.81C224.63 8.18 224.78 8.68 224.78 9.37L224.78 13.82L225.44 13.82L226.45 13.82L226.45 13.54C226.45 13.38 226.37 13.30 226.18 13.29ZM237.76 6.73C237.26 6.73 236.81 6.83 236.42 7.00C236.03 7.17 235.69 7.41 235.41 7.71C235.13 8.02 234.93 8.40 234.79 8.85C234.65 9.30 234.57 9.79 234.57 10.33C234.57 10.88 234.65 11.37 234.79 11.80C234.93 12.24 235.13 12.63 235.41 12.94C235.69 13.24 236.03 13.48 236.42 13.65C236.81 13.82 237.26 13.90 237.76 13.90C238.27 13.90 238.70 13.82 239.09 13.65C239.48 13.48 239.82 13.24 240.09 12.94C240.35 12.63 240.58 12.24 240.72 11.80C240.86 11.37 240.93 10.88 240.93 10.33C240.93 9.79 240.86 9.30 240.72 8.85C240.58 8.40 240.35 8.02 240.09 7.71C239.82 7.41 239.48 7.17 239.09 7.00C238.70 6.83 238.27 6.73 237.76 6.73ZM237.76 13.38C237.34 13.38 236.98 13.31 236.67 13.17C236.36 13.03 236.10 12.82 235.89 12.56C235.68 12.29 235.54 11.97 235.42 11.59C235.31 11.21 235.27 10.79 235.27 10.33C235.27 9.87 235.31 9.45 235.42 9.07C235.54 8.69 235.68 8.37 235.89 8.11C236.10 7.84 236.36 7.62 236.67 7.48C236.98 7.34 237.34 7.27 237.76 7.27C238.18 7.27 238.53 7.34 238.84 7.48C239.15 7.62 239.41 7.84 239.62 8.11C239.83 8.37 239.99 8.69 240.09 9.07C240.18 9.45 240.24 9.87 240.24 10.33C240.24 10.79 240.18 11.21 240.09 11.59C239.99 11.97 239.83 12.29 239.62 12.56C239.41 12.82 239.15 13.03 238.84 13.17C238.53 13.31 238.18 13.38 237.76 13.38ZM253.68 6.80C253.50 6.76 253.32 6.73 253.11 6.73C252.56 6.73 252.10 6.89 251.72 7.21C251.34 7.53 251.05 7.98 250.82 8.54L250.77 7.07C250.77 6.99 250.74 6.93 250.71 6.90C250.68 6.87 250.63 6.86 250.54 6.86L250.19 6.86L250.19 6.86L249.19 6.86L249.19 7.13C249.19 7.31 249.28 7.36 249.45 7.38C249.54 7.38 249.62 7.38 250.19 7.41L250.19 13.26C249.62 13.29 249.54 13.29 249.45 13.29C249.28 13.30 249.19 13.36 249.19 13.54L249.19 13.82L250.19 13.82L250.85 13.82L250.85 13.82L251.86 13.82L251.86 13.54C251.86 13.36 251.76 13.30 251.59 13.29C251.51 13.29 251.43 13.29 250.85 13.26L250.85 9.30C251.06 8.68 251.34 8.20 251.68 7.88C252.01 7.56 252.45 7.39 252.98 7.39C253.12 7.39 253.25 7.41 253.36 7.42C253.47 7.43 253.58 7.45 253.65 7.48C253.74 7.50 253.78 7.53 253.83 7.55C253.89 7.56 253.93 7.57 253.96 7.57C254.04 7.57 254.09 7.53 254.10 7.46L254.18 7.00C254.03 6.92 253.86 6.85 253.68 6.80ZM265.13 6.73C264.64 6.73 264.19 6.83 263.80 7.00C263.41 7.17 263.09 7.41 262.82 7.71C262.56 8.02 262.35 8.39 262.21 8.81C262.07 9.23 261.98 9.69 261.98 10.19C261.98 10.78 262.07 11.31 262.22 11.77C262.37 12.24 262.58 12.61 262.86 12.94C263.14 13.26 263.48 13.50 263.87 13.66C264.26 13.83 264.70 13.90 265.17 13.90C265.44 13.90 265.71 13.89 265.96 13.83C266.21 13.78 266.46 13.71 266.69 13.62C266.91 13.54 267.12 13.44 267.30 13.31C267.48 13.19 267.64 13.06 267.75 12.92L267.57 12.70C267.54 12.66 267.48 12.63 267.43 12.63C267.39 12.63 267.30 12.66 267.20 12.74C267.11 12.82 266.97 12.91 266.78 13.01C266.62 13.10 266.39 13.17 266.14 13.26C265.89 13.34 265.58 13.38 265.23 13.38C264.84 13.38 264.49 13.31 264.17 13.17C263.84 13.03 263.58 12.84 263.35 12.57C263.13 12.31 262.96 11.97 262.84 11.58C262.71 11.19 262.65 10.71 262.65 10.19L262.65 10.07L267.68 10.07C267.75 10.07 267.79 10.05 267.82 10.01C267.85 9.97 267.88 9.90 267.88 9.80C267.88 9.31 267.81 8.88 267.67 8.50C267.53 8.12 267.34 7.78 267.09 7.53C266.85 7.28 266.56 7.08 266.22 6.94C265.89 6.80 265.52 6.73 265.13 6.73ZM265.15 7.24C265.47 7.24 265.75 7.29 266.01 7.41C266.28 7.52 266.50 7.67 266.69 7.88C266.87 8.09 267.02 8.33 267.12 8.62C267.22 8.92 267.27 9.25 267.27 9.63L262.68 9.63C262.72 9.27 262.81 8.93 262.93 8.64C263.06 8.34 263.23 8.09 263.44 7.88C263.65 7.67 263.90 7.52 264.18 7.41C264.46 7.29 264.78 7.24 265.15 7.24Z"></path></g></svg>